<svg width="20" height="20" viewBox="0 0 20 20" fill="none" xmlns="http://www.w3.org/2000/svg">
<path fill-rule="evenodd" clip-rule="evenodd" d="M10.4591 1C8.01031 1 5.99995 2.88025 6 5.20028C6.00002 7.33964 7.71488 9.08217 9.90121 9.34388V13.8968H7.30321V14.9715H9.90121V18.03H11.0171V14.9715H13.6107V13.8968H11.0171V9.34388C13.2037 9.08217 14.9205 7.33964 14.9205 5.20028C14.9205 2.88025 12.908 1 10.4591 1ZM13.8046 5.20028C13.8046 3.47651 12.3205 2.07473 10.4591 2.07473C8.59777 2.07473 7.11584 3.47651 7.11588 5.20028C7.11589 6.92404 8.59781 8.32372 10.4591 8.32372C12.3205 8.32372 13.8046 6.92404 13.8046 5.20028Z" fill="#585CC6" stroke="#585CC6"/>
</svg>
