<svg width="20" height="20" viewBox="0 0 20 20" fill="none" xmlns="http://www.w3.org/2000/svg">
<path fill-rule="evenodd" clip-rule="evenodd" d="M14.2477 2.14369L8.67744 3.6417L8.98069 4.77034L13.1897 3.63714L9.38427 10.2243C7.26119 9.32653 4.75939 10.07 3.59743 12.0825C2.33741 14.265 3.139 17.0833 5.35765 18.3642C7.57629 19.6451 10.4203 18.9323 11.6803 16.7499C12.8419 14.738 12.2323 12.2004 10.3943 10.8103L14.1998 4.22084L15.3216 8.42986L16.4502 8.12889L14.9636 2.55638L14.8228 2L14.2477 2.14369ZM9.33411 11.4783C8.7017 11.1132 8.00964 10.9614 7.3436 10.9995C6.23353 11.063 5.19261 11.6529 4.6075 12.6662C3.67133 14.2878 4.25493 16.3804 5.94135 17.3541C7.62775 18.3277 9.73179 17.7877 10.668 16.1662C11.6041 14.5446 11.0205 12.4519 9.33411 11.4783Z" fill="#585CC6" stroke="#585CC6"/>
</svg>
